<svg xmlns="http://www.w3.org/2000/svg" width="807" height="328" viewBox="0 0 807 328" version="1.1"><path d="M 676.004 190.186 C 665.605 195.539, 664.098 208.181, 672.876 216.436 C 675.442 218.849, 677.069 219.450, 682.016 219.808 C 687.207 220.183, 688.561 219.894, 691.861 217.711 C 708.463 206.724, 693.690 181.082, 676.004 190.186" stroke="none" fill="#84bc24" fill-rule="evenodd"/><path d="M 108 164.037 L 108 219.229 131.750 218.724 C 148.944 218.358, 156.982 217.791, 160.869 216.669 C 179.424 211.311, 192.169 198.107, 196.494 179.760 C 198.485 171.317, 198.449 152.520, 196.426 144.716 C 191.944 127.418, 180.942 116.599, 162.500 111.355 C 157.822 110.025, 151.156 109.560, 132.250 109.246 L 108 108.844 108 164.037 M 292 164 L 292 219 306 219 L 320 219 320 164 L 320 109 306 109 L 292 109 292 164 M 419 118.500 L 419 128 433.500 128 L 448 128 448 118.500 L 448 109 433.500 109 L 419 109 419 118.500 M 478.750 114.303 L 467 116.386 467 126.693 L 467 137 461.966 137 L 456.932 137 457.216 147.750 L 457.500 158.500 462.166 158.801 L 466.832 159.103 467.192 180.801 C 467.491 198.873, 467.848 203.169, 469.326 206.500 C 473.885 216.774, 482.074 220.625, 497.440 219.718 C 502.423 219.424, 508.637 218.425, 511.250 217.498 L 516 215.812 516 204.906 C 516 198.908, 515.888 194.007, 515.750 194.015 C 515.612 194.023, 513.700 194.679, 511.500 195.471 C 506.336 197.332, 499.906 197.383, 497.441 195.583 C 495.670 194.289, 495.473 192.629, 495.186 176.583 L 494.871 159 503.936 159 L 513 159 513 148 L 513 137 504 137 L 495 137 495 124.500 C 495 109.881, 496.916 111.083, 478.750 114.303 M 548.500 112.996 C 546.300 113.423, 541.237 114.314, 537.250 114.977 L 530 116.181 530 126.590 L 530 137 524.966 137 L 519.932 137 520.216 147.750 L 520.500 158.500 525.166 158.801 L 529.832 159.103 530.192 180.801 C 530.491 198.873, 530.848 203.169, 532.326 206.500 C 536.828 216.645, 545.055 220.593, 559.902 219.731 C 564.631 219.456, 570.862 218.487, 573.750 217.577 L 579 215.923 579 204.961 C 579 198.933, 578.888 194.007, 578.750 194.015 C 578.612 194.023, 576.700 194.679, 574.500 195.471 C 569.336 197.332, 562.906 197.383, 560.441 195.583 C 558.670 194.289, 558.473 192.629, 558.186 176.583 L 557.871 159 566.936 159 L 576 159 576 148 L 576 137 567 137 L 558 137 558 124.500 L 558 112 555.250 112.110 C 553.737 112.170, 550.700 112.569, 548.500 112.996 M 137 164.145 L 137 194.290 144.078 193.697 C 161.299 192.253, 167.276 184.389, 167.405 163 C 167.467 152.619, 167.220 150.956, 164.865 145.909 C 160.880 137.369, 154.653 134.017, 142.750 134.006 L 137 134 137 164.145 M 230.624 137.637 C 220.558 140.728, 212.789 147.938, 208.769 157.921 C 206.802 162.806, 206.521 165.306, 206.511 178.021 C 206.500 192.421, 206.527 192.598, 209.781 199.206 C 213.781 207.331, 220.830 213.988, 228.798 217.167 C 233.759 219.145, 236.319 219.444, 248.500 219.470 C 260.587 219.496, 263.491 219.175, 269.750 217.125 C 274.811 215.467, 276.998 214.259, 276.992 213.125 C 276.982 211.058, 273.415 196.082, 272.782 195.449 C 272.521 195.187, 270.550 195.719, 268.404 196.630 C 266.110 197.603, 260.561 198.484, 254.953 198.767 C 246.672 199.184, 244.867 198.973, 241.341 197.174 C 237.618 195.275, 234 190.309, 234 187.099 C 234 186.330, 241.364 186, 258.500 186 L 283 186 282.992 178.750 C 282.962 149.256, 270.934 135.869, 244.645 136.070 C 239.568 136.108, 233.331 136.805, 230.624 137.637 M 354.312 138.074 C 339.339 142.819, 330 157.964, 330 177.500 C 330 195.836, 338.151 210.098, 352.390 216.674 C 357.972 219.253, 359.493 219.496, 370 219.496 C 380.507 219.496, 382.028 219.253, 387.610 216.674 C 399.692 211.094, 407.059 200.310, 409.088 185.233 C 412.035 163.334, 402.042 143.913, 384.837 138.102 C 376.576 135.313, 363.064 135.300, 354.312 138.074 M 609.324 137.389 C 595.761 141.795, 587.222 153.099, 584.775 169.886 C 582.381 186.314, 586.654 200.828, 596.548 209.870 C 605.160 217.741, 610.622 219.435, 627.500 219.468 C 637.933 219.488, 642.902 219.061, 647 217.792 C 656.472 214.858, 656.425 214.949, 653.945 204.486 C 652.774 199.544, 651.725 195.406, 651.615 195.290 C 651.504 195.175, 648.581 195.963, 645.118 197.040 C 637.109 199.533, 625.218 199.672, 620.283 197.330 C 616.648 195.605, 613.010 190.818, 613.004 187.750 C 613 186.132, 614.813 186, 637.100 186 L 661.201 186 660.820 173.250 C 660.508 162.790, 660.045 159.632, 658.241 155.670 C 654.634 147.749, 650.489 143.366, 643.216 139.785 C 636.982 136.715, 635.789 136.485, 625.022 136.266 C 617.438 136.112, 612.073 136.496, 609.324 137.389 M 419.239 177.750 L 419.500 218.500 433.500 218.500 L 447.500 218.500 447.761 177.750 L 448.022 137 433.500 137 L 418.978 137 419.239 177.750 M 239.750 157.080 C 237.770 158.233, 235 163.115, 235 165.450 C 235 166.756, 236.732 167, 246 167 C 252.156 167, 257 166.588, 257 166.065 C 257 163.956, 254.983 160.063, 252.873 158.096 C 250.405 155.797, 242.945 155.219, 239.750 157.080 M 617.538 158.250 C 616.123 159.488, 614.554 161.963, 614.052 163.750 L 613.140 167 624.500 167 L 635.860 167 634.948 163.750 C 633.571 158.847, 629.733 156, 624.500 156 C 621.378 156, 619.369 156.649, 617.538 158.250 M 364.871 158.459 C 360.836 160.727, 359 166.612, 359 177.277 C 359 187.823, 360.016 192.324, 363.150 195.660 C 366.229 198.938, 373.152 198.939, 376.428 195.663 C 382.385 189.706, 382.492 165.629, 376.586 160.081 C 373.620 157.294, 368.263 156.552, 364.871 158.459" stroke="none" fill="#040404" fill-rule="evenodd"/></svg>